<svg xmlns="http://www.w3.org/2000/svg" viewBox="0 0 2000 1520"><g stroke-width="0"><path d="M788.5 256.5c-33.9 3.4-55.9 8.5-92.9 21.5-41.5 14.6-53.9 21-91.4 47.3-46.7 32.8-62.9 49.4-94.5 96.7-25.1 37.5-35.1 57.5-46.9 94-10.9 33.6-14.1 48.2-17.8 79.7-2.6 22.4-3 29.7-3 51.2 0 31 1.6 46.6 8.1 78.8 7.1 35.6 13.6 55 30.3 90.5 11.3 24 15.6 31.9 28.3 51.9 23.5 36.9 45.7 61.6 80.6 89.3 24.2 19.2 45.4 31.9 81.2 48.9l31 14.7 38.5 11 38.5 11 40.5 5.5 40.5 5.5 58 .7 58 .8 39-3.9c21.5-2.1 39.3-4.1 39.8-4.5.4-.4.6-7.5.5-15.7l-.3-15-31.5 3.8-31.5 3.7h-50.7c-50.1.1-50.9.1-78-3-20.1-2.2-33.2-4.3-49.8-7.9-35.1-7.7-53-13.6-84.5-28-49.2-22.6-80.8-44.4-116.1-80.2-21.7-22-32.5-34.9-44.1-52.9-11.2-17.4-27.2-49.7-34.4-69.6C519.2 741.4 511 692.6 511 646c0-39 5.9-75.9 18.9-118.7 6.9-22.5 9-28.3 17.3-45.3 11.9-24.5 24.6-44.2 43.3-67.1 12.5-15.4 17.5-20.5 38.7-39.6 30.1-27.2 43.2-36.5 76.5-54.6 29.2-15.9 40.7-20.6 69.8-28.3 30-8 50.8-10.4 92.5-10.4 30.2 0 30.7 0 66 4.5 29.2 3.7 38.1 5.2 50.1 8.5 19.5 5.4 21 5.1 25.2-4.4l3.1-6.9-3.1-2.6c-4.4-3.6-20.3-7.8-59.3-15.7-27.4-5.5-36.6-6.9-58.5-9-35-3.2-70-3.2-103 .1"/><path d="M1390 299.4c0 .3 15.3 16.2 34.1 35.3 29.1 29.7 36.5 38 50.9 56.3 25 32 43 61 61 98 11.9 24.5 15.7 33.8 24.1 57.5 13.4 38.1 22.5 76.5 27.1 114l3 25-.6 51.6c-.7 60.3-1.8 71.3-10.9 113-4.5 20.3-7.4 30.2-16.2 56-18 52.7-36.1 88.8-66.3 131.9-22.6 32.2-32.1 43.8-57.6 70.3-17.9 18.6-27.6 27.5-51.4 47.5-38.3 32.2-51.3 40.8-100.7 67-35.3 18.7-40 20.9-66 30.8-41.9 15.9-64.3 21.7-115.2 29.9l-40.3 6.5H956.8l-44.7-7.1-44.6-7-38-11.6c-25.9-7.9-43.9-14.1-56.5-19.3-10.2-4.3-18.6-7.6-18.8-7.5-2.8 2.4 43.2 29.5 76.3 45 35.5 16.6 53.3 22.9 94 33.1l34 8.6 44.5 5.4 44.5 5.4h41.6c39.8 0 42.7-.1 67.5-3 36.7-4.2 63.4-9.5 99.9-19.5 26.9-7.4 34.7-10.1 59.5-20.1 70.8-28.6 126.9-65.3 182.9-119.3 37.3-36.2 62-67.1 88.3-111 18.9-31.4 30.5-55.7 42.9-90 9.9-27.1 10.2-28.3 18-65.1 11.2-53.2 14.5-80.3 15.4-128.5.8-44.2-1-66.8-8.5-107.5-4.4-23.4-6.2-30.5-15.3-60-12.6-40.4-21.9-63.1-39-95-17.5-32.7-30.1-52.3-51-79.3-26.3-33.9-45.6-53.7-81.1-83.2-25.3-21-29.7-24.3-52.4-38.3-13.6-8.5-25-15.6-25.4-15.9-.5-.2-.8-.2-.8.1"/><path d="M835 370.1c-2.1.8-7.1 10.2-30.1 56.2-15.2 30.3-64.4 124.9-109.4 210.2-64 121.6-81.7 155.8-81.8 158.9l-.2 3.9 24 5.7c13.2 3.1 33.7 8.7 45.6 12.4 23.7 7.3 26.1 7.5 27.2 1.9.3-1.5 11.5-24 24.8-49.8 13.3-25.9 46.4-91.7 73.5-146.3 49.2-99.1 49.3-99.2 52.4-99.2 1.6 0 3 .2 3 .4 0 .3 1.8 24.2 4 53.3 2.5 33 5.1 60.5 6.9 73.3 1.7 11.3 3.3 27 3.6 35 .4 8 2.5 28.7 4.6 46 2.2 17.3 4.9 43.9 6 59 1.1 15.6 3.6 38.6 5.7 53l3.7 25.5 11 1.1c8.3.9 14.2 2.3 24 5.6 7.2 2.5 18.4 5.5 25 6.7 7.2 1.4 15 3.6 19.5 5.5 6.6 2.9 24.3 6.8 25.4 5.5.1-.2 18.9-40 41.6-88.4s49-103.3 58.5-122 23.9-48.6 32-66.4c8.1-17.9 16.4-35.2 18.5-38.5 2.1-3.4 9.1-17.9 15.4-32.4 6.4-14.5 16.6-35.6 22.7-46.9 9.5-17.7 17.9-36.7 16.8-37.7-1.3-1.2-68.9-18.8-75.2-19.6-4.2-.5-9-1.6-10.7-2.5-3.8-2-7.3-1.9-9.2.2-.9 1-10.8 21.4-22.1 45.3s-32.6 67.1-47.3 96-33.5 67.6-41.8 86c-14.2 31.4-15.3 33.5-17.9 33.8-1.6.2-2.9-.2-3.2-1-.2-.7-2-22.9-4-49.3-2.7-35.9-4.4-53.4-7-69.5-1.9-11.8-3.7-26.7-4-33-.4-6.3-2.8-25.7-5.5-43s-5.2-36.2-5.5-42c-.4-5.8-1.8-15.7-3-22-1.3-6.4-2.7-17.2-3.1-24-.5-8.9-1.2-13.5-2.5-16.1l-1.7-3.5-18.9-4.3c-10.3-2.4-25.9-6.5-34.5-9.2s-17.4-4.9-19.6-4.9c-3 0-17.4-4-33.7-9.4-.5-.2-2.1.1-3.5.5m433.5 276.6c-12.7 1.8-39.3 10.5-51.3 16.8-16 8.5-42.2 27-42.2 29.9 0 .6-2.5 3.2-5.5 5.6-2.9 2.5-5.4 5-5.5 5.6 0 .5-1.7 2.3-3.8 3.9-7.8 5.8-37.2 48.8-37.2 54.3 0 1.1-1.1 3.3-2.4 4.9-3.3 4-4.7 7.1-9.9 21.8-8.5 24.3-11.2 40.3-10.4 62.5 1.1 31.8 8.4 49.5 29 69.7 9.6 9.6 12.5 11.8 19.8 15.3 5.2 2.5 11.2 4.5 15.3 5.1 3.7.6 10 2.4 13.9 4 10.2 4.3 18.5 5.3 42.7 5.3 19.4.1 22.4-.1 30.5-2.3 24.8-6.5 40.5-13.1 59-24.9 10.5-6.7 14.6-10.2 30.3-25.6 14.9-14.6 24.3-25.4 26.4-30.3.6-1.5 2.4-4.2 3.9-5.8 3.7-4 13-20.3 19.1-33.3 5.6-12.1 13.7-38.2 16.3-52.3 1.4-7.9 1.6-13.7 1.2-31.5-.5-24.3-1.1-27.6-8.2-43.6-12.5-27.8-39.1-46.2-78-53.8-8.1-1.6-13.7-2-30-1.9-11 .1-21.3.4-23 .6m41 16.7c11 3.4 28.1 17.2 33.1 26.8 5.4 10.6 6.9 18.7 6.8 38.8 0 10.2-.6 22.1-1.3 26.5-2.2 13.9-10 43.5-15.1 57-8.6 23.2-23.6 52.5-31.5 61.4-1.7 2-3.6 4.9-4.3 6.4-1.8 4.2-17 21.4-25.8 29.4-11.2 10.1-18.1 14.5-30.1 19.3-9.4 3.8-12 4.4-20.3 4.8-24.8 1.1-43.9-10.7-55.7-34.4l-4.8-9.7v-28.6c0-31.8-.1-31 9.2-59.6 16.2-49.8 34.4-81.6 62.5-109.1l14.5-14.2 14.4-7.1c7.9-4 16.4-7.6 18.9-8 7.5-1.5 24.2-1.2 29.5.3"/></g></svg>